<svg width="41" height="29" viewBox="0 0 41 29" fill="none" xmlns="http://www.w3.org/2000/svg">
<g id="Logo" clip-path="url(#clip0_116_727)">
<path id="Vector" fill-rule="evenodd" clip-rule="evenodd" d="M10.0981 4.96142L0.112305 14.8468C2.10964 16.8241 4.39129 18.4905 6.87894 19.7942C7.56655 21.5998 8.64433 23.2931 10.1123 24.7463C15.6352 30.2136 24.5895 30.2136 30.1123 24.7463C31.5803 23.2931 32.6581 21.5998 33.3457 19.7941C35.8333 18.4905 38.115 16.8241 40.1123 14.8468L30.1346 4.96946C30.1272 4.96207 30.1198 4.95468 30.1123 4.9473C24.5895 -0.520031 15.6352 -0.520031 10.1123 4.9473C10.1076 4.95201 10.1028 4.95671 10.0981 4.96142ZM29.1568 21.5777C26.2468 22.5499 23.192 23.0478 20.1123 23.0478C17.0326 23.0478 13.9779 22.5499 11.0679 21.5777C11.3832 21.9918 11.7313 22.3892 12.1123 22.7664C16.5306 27.1403 23.694 27.1403 28.1123 22.7664C28.4933 22.3892 28.8415 21.9918 29.1568 21.5777ZM12.3174 6.7292C13.0677 7.21991 13.8655 7.63982 14.7003 7.98216C16.4161 8.68572 18.2551 9.04784 20.1123 9.04784C21.9695 9.04784 23.8085 8.68572 25.5243 7.98216C26.3591 7.63982 27.1569 7.2199 27.9073 6.72918C23.5441 2.61933 16.6805 2.61934 12.3174 6.7292Z" fill="#3B4158"/>
</g>
<defs>
<clipPath id="clip0_116_727">
<rect width="40" height="28" fill="white" transform="translate(0.112305 0.846802)"/>
</clipPath>
</defs>
</svg>
